<svg xmlns="http://www.w3.org/2000/svg" xmlns:xlink="http://www.w3.org/1999/xlink" width="1200" height="1200" viewBox="0 0 1200 1200"><g><g transform="translate(600 600) scale(0.69 0.69) rotate(0) translate(-600 -600)" style="fill:#1e1e1e"><svg fill="#1e1e1e" xmlns="http://www.w3.org/2000/svg" xmlns:xlink="http://www.w3.org/1999/xlink" version="1.1" x="0px" y="0px" viewBox="1 -1 100 100" style="enable-background:new 1 -1 100 100;" xml:space="preserve"><path d="M73.4,65.2c5.1-6.4,7.9-14.5,7.9-22.7c0-20.2-16.5-36.7-36.8-36.7C24.2,5.8,7.8,22.3,7.8,42.5s16.5,36.7,36.7,36.7  c8.1,0,16.2-2.8,22.7-7.9l22.1,22.1l6.3-6.3L73.4,65.2z M44.5,70.5c-15.3,0-27.8-12.5-27.8-27.8c0-15.3,12.5-27.8,27.8-27.8  c15.3,0,27.8,12.5,27.8,27.8C72.3,58,59.8,70.5,44.5,70.5z"></path></svg></g></g></svg>